<svg xmlns="http://www.w3.org/2000/svg" xmlns:xlink="http://www.w3.org/1999/xlink" version="1.1" x="0px" y="0px" viewBox="0 0 100 125" style="enable-background:new 0 0 100 100;" xml:space="preserve"><g><path d="M61.807,55.646c-0.861-0.375-2.172-2.332-3.049-4.553c-0.66-1.672-2.648-6.708-8.13-7.085c-0.114-0.02-0.23-0.03-0.35-0.03   c-0.024,0-0.091,0.002-0.147,0.005c-0.264-0.01-0.36,0-0.501,0.025c-5.486,0.375-7.474,5.413-8.135,7.085   c-0.877,2.221-2.188,4.178-3.049,4.553c-4.479,1.949-7.167,6.667-6.535,11.473c0.583,4.437,3.8,7.621,8.396,8.31   c1.963,0.294,4.075,0.025,5.936-0.757c0.595-0.25,1.124-0.534,1.636-0.809c0.814-0.437,1.524-0.818,2.247-0.916   c0.723,0.098,1.433,0.479,2.247,0.916c0.512,0.275,1.042,0.559,1.636,0.809c1.363,0.573,2.861,0.876,4.333,0.876h0   c0.537,0,1.077-0.04,1.602-0.119c4.596-0.689,7.813-3.874,8.396-8.31C68.974,62.313,66.287,57.595,61.807,55.646z M64.376,66.599   c-0.167,1.264-0.989,4.27-5.023,4.875c-0.33,0.05-0.67,0.075-1.009,0.075c0,0,0,0,0,0c-0.944,0-1.907-0.195-2.784-0.563   c-0.42-0.176-0.845-0.404-1.294-0.646c-1.109-0.595-2.367-1.27-3.984-1.396c-0.051-0.004-0.103-0.006-0.154-0.006   s-0.103,0.002-0.154,0.006c-1.617,0.125-2.875,0.8-3.984,1.396c-0.45,0.242-0.875,0.47-1.294,0.646   c-1.192,0.502-2.545,0.676-3.793,0.489c-4.035-0.605-4.857-3.611-5.023-4.875c-0.328-2.493,0.835-5.835,4.165-7.284   c2.733-1.189,4.528-5.118,5.174-6.752c1.231-3.118,2.678-4.485,4.839-4.572c0.024-0.001,0.048-0.002,0.071-0.004   c0.023,0.002,0.047,0.003,0.071,0.004c2.161,0.086,3.608,1.454,4.839,4.572c0.646,1.634,2.441,5.563,5.174,6.752   C63.541,60.763,64.704,64.105,64.376,66.599z"/><path d="M34.349,53.814c1.518-2.23,2.038-5.266,1.426-8.329c-0.99-4.957-4.629-8.555-8.652-8.555c-0.39,0-0.781,0.035-1.163,0.104   c-1.793,0.323-3.394,1.401-4.507,3.036c-1.519,2.23-2.039,5.267-1.427,8.33c0.991,4.957,4.63,8.555,8.653,8.555   c0.39,0,0.781-0.035,1.163-0.104C31.636,56.528,33.236,55.45,34.349,53.814z M31.042,51.564c-0.356,0.523-0.977,1.183-1.91,1.351   c-2.152,0.392-4.541-2.083-5.184-5.298c-0.397-1.987-0.094-3.967,0.81-5.295c0.356-0.523,0.977-1.183,1.91-1.351   c0.149-0.027,0.301-0.041,0.454-0.041c2.054,0,4.132,2.345,4.729,5.338C32.25,48.256,31.947,50.235,31.042,51.564z"/><path d="M40.674,41.805c0.173,0,0.347-0.007,0.521-0.021c2.232-0.184,4.271-1.565,5.593-3.792c1.212-2.041,1.759-4.631,1.54-7.295   c-0.478-5.808-4.345-10.147-8.85-9.771c-4.481,0.369-7.614,5.239-7.133,11.087C32.805,37.595,36.386,41.805,40.674,41.805z    M39.807,24.912c0.064-0.005,0.129-0.008,0.193-0.008c1.854,0,4.041,2.459,4.342,6.121c0.149,1.816-0.212,3.611-0.992,4.924   c-0.383,0.645-1.216,1.743-2.482,1.848c-0.065,0.005-0.129,0.008-0.193,0.008c-1.854,0-4.041-2.459-4.342-6.121   C36.045,28.192,37.637,25.091,39.807,24.912z"/><path d="M74.041,37.034c-0.382-0.069-0.774-0.104-1.164-0.104c-4.023,0-7.662,3.598-8.652,8.555   c-0.612,3.063-0.092,6.099,1.426,8.329c1.113,1.635,2.713,2.714,4.507,3.037c0.382,0.069,0.773,0.104,1.162,0.104c0,0,0,0,0,0   c4.023,0,7.662-3.598,8.653-8.556c0.612-3.063,0.092-6.099-1.427-8.33C77.434,38.436,75.833,37.357,74.041,37.034z M76.051,47.616   c-0.643,3.216-3.03,5.691-5.183,5.299c-0.933-0.168-1.554-0.828-1.91-1.351c-0.904-1.329-1.207-3.308-0.81-5.295   c0.598-2.993,2.675-5.338,4.729-5.338c0.152,0,0.305,0.014,0.454,0.041c0.933,0.168,1.553,0.827,1.91,1.351   C76.145,43.65,76.448,45.629,76.051,47.616z"/><path d="M58.804,41.784c0.174,0.015,0.349,0.021,0.521,0.021c0,0,0,0,0,0c4.288,0,7.869-4.21,8.328-9.792   c0.481-5.848-2.652-10.718-7.133-11.087c-4.494-0.369-8.372,3.964-8.85,9.771c-0.219,2.664,0.328,5.254,1.54,7.295   C54.533,40.218,56.572,41.6,58.804,41.784z M55.658,31.025c0.301-3.662,2.488-6.121,4.342-6.121c0.064,0,0.128,0.002,0.193,0.008   c2.17,0.179,3.762,3.28,3.475,6.772c-0.301,3.662-2.488,6.121-4.342,6.121c-0.064,0-0.128-0.002-0.193-0.008   c-1.267-0.104-2.099-1.203-2.482-1.848C55.87,34.636,55.508,32.842,55.658,31.025z"/><path d="M80.076,31.58v-7.704c0-1.104-0.896-2-2-2s-2,0.896-2,2v5.994c-0.611-0.162-1.232-0.3-1.872-0.384v-0.514   c0-7.165-4.776-12.432-13.157-14.623V7.013c0-1.104-0.896-2-2-2s-2,0.896-2,2v6.517c-4.739-0.744-9.512-0.735-14.241,0.023V7   c0-1.104-0.896-2-2-2s-2,0.896-2,2v7.384c-8.293,2.214-13.011,7.464-13.011,14.588v0.509c-0.69,0.09-1.36,0.241-2.018,0.421v-6.038   c0-1.104-0.896-2-2-2s-2,0.896-2,2v7.794c-4.227,2.658-7.048,7.356-7.048,12.708V93c0,1.104,0.896,2,2,2s2-0.896,2-2V44.366   c0-5.393,3.901-9.884,9.066-10.822v0.268c0,1.104,0.896,2,2,2s2-0.896,2-2v-2.456v-2.383c0-7.147,6.192-9.953,11.408-11.051   c0.005-0.001,0.011-0.003,0.016-0.004c0.003-0.001,0.005-0.001,0.008-0.002c2.213-0.476,4.439-0.767,6.668-0.88v4.542   c0,1.104,0.896,2,2,2s2-0.896,2-2v-4.551c2.133,0.098,4.264,0.365,6.386,0.795c0.225,0.094,0.472,0.145,0.73,0.15   c5.162,1.125,11.194,3.948,11.194,11.002v2.176c-0.023,0.121-0.038,0.245-0.038,0.373v2.457c0,1.104,0.896,2,2,2s2-0.896,2-2   v-0.445c5.164,0.907,9.104,5.414,9.104,10.834V93c0,1.104,0.896,2,2,2s2-0.896,2-2V44.366C87.271,38.96,84.391,34.223,80.076,31.58   z"/></g><text x="0" y="115" fill="#000000" font-size="5px" font-weight="bold" font-family="'Helvetica Neue', Helvetica, Arial-Unicode, Arial, Sans-serif"></text><text x="0" y="120" fill="#000000" font-size="5px" font-weight="bold" font-family="'Helvetica Neue', Helvetica, Arial-Unicode, Arial, Sans-serif"></text></svg>